<svg width="24" height="23" viewBox="0 0 24 23" fill="none" xmlns="http://www.w3.org/2000/svg">
<path d="M23.518 2.35233C25.172 6.52674 22.5245 16.5455 16.2636 20.6612C10.004 24.7768 2.17267 23.1297 0.305857 16.2097C-0.847254 11.9358 2.23347 8.80257 8.4937 4.68757C14.7539 0.571884 21.8875 -1.76336 23.518 2.35233Z" fill="#35C85F"/>
<path d="M13.5725 16.2574C9.06577 19.3982 3.01073 19.8155 0.812288 16.6595C-1.38684 13.5048 1.10108 7.96933 5.6092 4.8285C10.1152 1.68836 20.7751 -1.93955 22.9743 1.2151C25.1734 4.3725 18.0792 13.1165 13.5725 16.2574Z" fill="#35C85F"/>
<path d="M13.0267 16.636C9.04919 19.4085 3.712 18.7757 1.77195 15.9907C-0.167402 13.2056 2.10013 8.27331 6.07764 5.50212C10.0538 2.73092 20.0739 -0.898371 22.0153 1.88595C23.9547 4.67028 18.6817 13.0612 13.0267 16.636" fill="#A6D388"/>
<path d="M11.8895 14.8037C8.77628 16.9731 5.02262 16.9641 3.50471 14.7851C1.98474 12.606 3.27672 9.08168 6.38991 6.91226C9.50379 4.74214 17.3303 1.91153 18.8503 4.09062C20.3696 6.26972 15.004 12.6343 11.8895 14.8037Z" fill="#C6E5B3"/>
<path d="M7.04834 6.9012C9.45267 5.29003 12.1486 5.86831 13.8178 7.58865C14.8078 8.60911 13.2098 11.3071 10.8061 12.9182C8.40319 14.528 5.43854 14.1363 5.11382 13.4233C4.11893 11.2421 4.64608 8.51169 7.04834 6.9012V6.9012Z" fill="#662113"/>
<path d="M8.36727 7.32818C9.41053 6.6283 10.726 6.76233 11.3064 7.62596C11.8846 8.49027 11.5095 9.75876 10.4655 10.4586C9.42227 11.1565 8.1068 11.0231 7.52714 10.1595C6.94747 9.29448 7.32401 8.02737 8.36727 7.32818V7.32818Z" fill="#7C3225"/>
</svg>
