<svg width="24" height="25" viewBox="0 0 24 25" fill="none" xmlns="http://www.w3.org/2000/svg">
<path d="M6.17082 8.22926C6.06797 8.22926 5.96305 8.20595 5.865 8.15658C2.86158 6.65487 0.733136 2.99592 0.0357675 0.903126C-0.0849177 0.543813 0.109824 0.155701 0.469137 0.0357012C0.829135 -0.084984 1.21725 0.110444 1.33656 0.469071C1.93793 2.27386 3.86546 5.62356 6.47871 6.92984C6.81745 7.09921 6.95459 7.51132 6.78522 7.85006C6.66454 8.09075 6.42248 8.22926 6.17082 8.22926V8.22926Z" fill="#77B255"/>
<path d="M12.3429 24.6863C14.9939 24.6863 17.1429 22.5373 17.1429 19.8863C17.1429 17.2354 14.9939 15.0864 12.3429 15.0864C9.69196 15.0864 7.54294 17.2354 7.54294 19.8863C7.54294 22.5373 9.69196 24.6863 12.3429 24.6863Z" fill="#553788"/>
<path d="M6.17151 15.0864C8.82247 15.0864 10.9715 12.9374 10.9715 10.2864C10.9715 7.63544 8.82247 5.48642 6.17151 5.48642C3.52056 5.48642 1.37154 7.63544 1.37154 10.2864C1.37154 12.9374 3.52056 15.0864 6.17151 15.0864Z" fill="#9266CC"/>
<path d="M12.3429 13.0292C14.9939 13.0292 17.1429 10.8802 17.1429 8.22927C17.1429 5.57831 14.9939 3.42929 12.3429 3.42929C9.69196 3.42929 7.54294 5.57831 7.54294 8.22927C7.54294 10.8802 9.69196 13.0292 12.3429 13.0292Z" fill="#AA8DD8"/>
<path d="M17.8286 17.1435C20.4795 17.1435 22.6286 14.9945 22.6286 12.3435C22.6286 9.69257 20.4795 7.54355 17.8286 7.54355C15.1776 7.54355 13.0286 9.69257 13.0286 12.3435C13.0286 14.9945 15.1776 17.1435 17.8286 17.1435Z" fill="#744EAA"/>
<path d="M5.4858 22.6292C8.13675 22.6292 10.2858 20.4802 10.2858 17.8292C10.2858 15.1783 8.13675 13.0292 5.4858 13.0292C2.83485 13.0292 0.685822 15.1783 0.685822 17.8292C0.685822 20.4802 2.83485 22.6292 5.4858 22.6292Z" fill="#744EAA"/>
<path d="M11.6572 19.2006C14.3082 19.2006 16.4572 17.0516 16.4572 14.4007C16.4572 11.7497 14.3082 9.60068 11.6572 9.60068C9.00625 9.60068 6.85722 11.7497 6.85722 14.4007C6.85722 17.0516 9.00625 19.2006 11.6572 19.2006Z" fill="#9266CC"/>
<path d="M19.2 24.6863C21.851 24.6863 24 22.5373 24 19.8863C24 17.2354 21.851 15.0864 19.2 15.0864C16.5491 15.0864 14.4 17.2354 14.4 19.8863C14.4 22.5373 16.5491 24.6863 19.2 24.6863Z" fill="#9266CC"/>
</svg>
