<svg width="24" height="24" viewBox="0 0 24 24" fill="none" xmlns="http://www.w3.org/2000/svg">
<path d="M1.99996 12.8885C1.99996 6.81364 6.92479 1.88815 12.9996 1.88815C19.0752 1.88815 24 6.81298 24 12.8885C24 18.964 19.0752 23.8889 12.9996 23.8889C6.92479 23.8889 1.99996 18.964 1.99996 12.8885Z" fill="#F4900C"/>
<path d="M7.60948 4.94495C7.43147 4.76695 7.07813 4.81361 6.70611 5.02495C4.50604 3.20356 0.937262 2.59021 0.775924 2.56354C0.411912 2.50421 0.0699012 2.74822 0.00923259 3.11089C-0.051436 3.47357 0.193238 3.81758 0.556583 3.87825C0.591918 3.88425 3.84602 4.4476 5.77075 5.98499C5.58741 6.335 5.55474 6.66167 5.72408 6.83035C5.98409 7.09102 6.61744 6.87968 7.13813 6.359C7.65881 5.83898 7.86948 5.20563 7.60948 4.94495V4.94495Z" fill="#662113"/>
<path d="M14.0003 0.554796C14.0003 0.554796 11.9296 3.43355 9.31953 4.07024C7.33346 4.55492 4.69405 4.60159 4.43071 3.98824C4.16803 3.37555 5.47874 1.36349 7.74348 0.392791C10.0082 -0.57724 14.0003 0.554796 14.0003 0.554796Z" fill="#5C913B"/>
</svg>
