<svg width="19" height="24" viewBox="0 0 19 24" fill="none" xmlns="http://www.w3.org/2000/svg">
<path d="M1.61177 7.13046C-2.36946 13.4491 2.27821 19.6523 2.27821 19.6523C2.27821 19.6523 4.27752 19.3448 7.06084 16.0348C9.84346 12.7249 1.61177 7.13046 1.61177 7.13046ZM16.4584 7.13046C20.4397 13.4491 15.792 19.6523 15.792 19.6523C15.792 19.6523 13.7927 19.3448 11.0094 16.0348C8.22606 12.7249 16.4584 7.13046 16.4584 7.13046Z" fill="#662113"/>
<path d="M7.09769 21.431C7.01213 21.2717 6.87717 21.1639 6.7283 21.086C5.31473 19.575 6.31856 17.8046 6.31856 17.8046C6.31856 17.3155 7.20274 16.0348 6.31856 16.0348L5.43369 16.9197C4.54881 17.8039 4.54881 20.4599 4.54881 20.4599H2.77907C2.29002 20.4599 1.8942 20.855 1.8942 21.3448C1.8942 21.8324 2.29002 22.2289 2.77907 22.2289H3.75855L3.56238 22.3354C3.13246 22.5677 2.97246 23.1041 3.20481 23.5361C3.43716 23.9646 3.9742 24.126 4.40412 23.8936L6.73943 22.6303C7.17004 22.398 7.32796 21.8616 7.09769 21.431ZM10.9906 21.431C11.0761 21.2717 11.2111 21.1639 11.3593 21.086C12.7735 19.575 11.769 17.8046 11.769 17.8046C11.769 17.3155 10.8848 16.0348 11.769 16.0348L12.6539 16.9197C13.5395 17.8039 13.5395 20.4599 13.5395 20.4599H15.3092C15.7989 20.4599 16.1934 20.855 16.1934 21.3448C16.1934 21.8324 15.7996 22.2289 15.3092 22.2289H14.3297L14.5252 22.3354C14.9565 22.5677 15.1151 23.1041 14.8835 23.5361C14.6497 23.9646 14.1148 24.126 13.6828 23.8936L11.3481 22.6303C10.9175 22.398 10.7589 21.8616 10.9906 21.431V21.431Z" fill="#FFAC33"/>
<path d="M16.1934 7.33359C18.2045 3.09566 16.1934 0 16.1934 0C16.1934 0 12.1718 0.667133 11.5019 2.00001C10.6539 3.68628 16.1934 7.33359 16.1934 7.33359Z" fill="#662113"/>
<path d="M17.0866 8.33954C17.0866 15.5027 14.8939 22.6666 9.04346 22.6666C3.1937 22.6666 0.999603 15.5027 0.999603 8.33954C0.999603 1.17569 4.60101 0.927338 9.04346 0.927338C13.4866 0.927338 17.0866 1.17569 17.0866 8.33954V8.33954Z" fill="#662113"/>
<path d="M15.7676 11.8178C15.7676 18.981 10.3596 21.9709 9.04345 21.9709C7.72727 21.9709 2.31924 18.981 2.31924 11.8178C2.31924 4.65395 15.7676 4.65395 15.7676 11.8178Z" fill="#C1694F"/>
<path d="M1.8935 7.33359C-0.117635 3.09566 1.8935 0 1.8935 0C1.8935 0 5.91578 0.667133 6.58639 2.00001C7.4337 3.68628 1.8935 7.33359 1.8935 7.33359V7.33359Z" fill="#662113"/>
<path d="M6.90709 2.52036C3.96656 1.41844 1.89351 0 1.89351 0C1.89351 0 0.449329 2.2407 1.24794 5.51376C1.5582 7.00038 2.59751 8.43203 3.96378 8.7569C5.79822 9.19308 9.04345 8.72282 9.04345 6.00002C9.04345 4.12523 8.29632 3.0421 6.90709 2.52036ZM11.1798 2.52036C14.1203 1.41844 16.1927 0 16.1927 0C16.1927 0 17.6369 2.2407 16.8383 5.51376C16.5287 7.00038 15.4894 8.43203 14.1238 8.7569C12.2887 9.19308 9.04345 8.72282 9.04345 6.00002C9.04345 4.12523 9.79058 3.0421 11.1798 2.52036Z" fill="#C1694F"/>
<path d="M7.70987 5.33359C7.70987 6.80629 6.51613 8.00004 5.04343 8.00004C3.57073 8.00004 2.37698 6.80629 2.37698 5.33359C2.37698 3.86089 3.57142 2.66715 5.04343 2.66715C6.51613 2.66645 7.70987 3.86089 7.70987 5.33359ZM15.7099 5.33359C15.7099 6.80629 14.5162 8.00004 13.0435 8.00004C11.5708 8.00004 10.377 6.80629 10.377 5.33359C10.377 3.86089 11.5708 2.66715 13.0435 2.66715C14.5162 2.66715 15.7099 3.86089 15.7099 5.33359Z" fill="#FFD983"/>
<path d="M6.37701 5.33357C6.37701 6.07027 5.78014 6.66714 5.04344 6.66714C4.30674 6.66714 3.70987 6.07027 3.70987 5.33357C3.70987 4.59757 4.30674 4 5.04344 4C5.78014 4 6.37701 4.59687 6.37701 5.33357ZM14.377 5.33357C14.377 6.07027 13.7802 6.66714 13.0435 6.66714C12.3068 6.66714 11.7099 6.07027 11.7099 5.33357C11.7099 4.59757 12.3068 4 13.0435 4C13.7802 4 14.377 4.59687 14.377 5.33357Z" fill="#292F33"/>
<path d="M11.0435 8.33323C11.0435 9.99028 9.04347 10.6665 9.04347 10.6665C9.04347 10.6665 7.04346 9.98958 7.04346 8.33323C7.04346 6.67687 9.04347 6 9.04347 6C9.04347 6 11.0435 6.67618 11.0435 8.33323Z" fill="#FFCC4D"/>
<path d="M11.0435 8.33325C11.0435 9.9903 9.04347 10.6665 9.04347 10.6665C9.04347 10.6665 7.04346 9.98961 7.04346 8.33325C7.87685 9.16665 9.04347 9.3336 9.04347 9.3336C9.04347 9.3336 10.2101 9.16665 11.0435 8.33325Z" fill="#F4900C"/>
</svg>
