<svg width="24" height="24" viewBox="0 0 24 24" fill="none" xmlns="http://www.w3.org/2000/svg">
<path d="M7.59416 1.55732C11.9089 0.708356 13.2227 2.39963 15.3547 1.61326C17.4868 0.826879 15.4167 3.49098 14.8587 3.94909C14.2994 4.4072 9.43792 7.1512 7.32982 6.14508C5.22171 5.13897 5.21106 2.02609 7.59416 1.55732V1.55732Z" fill="#5C913B"/>
<path d="M9.98859 9.98776C9.78617 9.98776 9.58575 9.89587 9.45524 9.72141C8.9978 9.11149 8.5843 8.41966 8.14683 7.68655C6.63667 5.15962 4.92475 2.29444 0.521428 1.31563C0.162531 1.23572 -0.0638609 0.880155 0.016042 0.521257C0.0959449 0.161694 0.451513 -0.0633657 0.81041 0.0158714C5.77371 1.11853 7.72335 4.3819 9.29011 7.00405C9.7096 7.70586 10.1051 8.36839 10.5206 8.92238C10.7417 9.21669 10.6818 9.63419 10.3874 9.85459C10.2676 9.94448 10.1278 9.98776 9.98859 9.98776V9.98776Z" fill="#77B255"/>
<path d="M22.839 20.3312C22.8403 20.3199 22.837 20.3125 22.837 20.3025C24.6841 16.7502 24.5995 10.2394 20.609 6.24829C16.7464 2.38631 11.5001 2.37233 8.11286 3.54024C7.06147 3.94908 6.17056 3.58419 5.57262 4.18279C4.986 4.76942 5.3389 5.99326 5.09719 6.72571C2.98709 10.1895 2.82995 15.3985 6.88702 19.4549C10.191 22.7589 13.8372 24.0107 20.1909 22.6863C20.1922 22.685 20.1942 22.6857 20.1962 22.685C20.9606 22.5398 22.1605 23.0332 22.5706 22.6224C23.2931 21.8999 22.7764 21.0523 22.839 20.3312V20.3312Z" fill="#FFCC4D"/>
<path d="M5.46543 3.71737C5.46543 3.71737 2.62222 3.32452 0.899642 6.77965C-0.822932 10.2341 1.28717 12.8556 1.09274 15.2047C0.897645 17.5552 2.13547 16.0471 2.83795 14.9084C3.54043 13.7698 5.65453 11.6491 6.12596 8.73661C6.59672 5.82282 6.07935 4.4365 5.46543 3.71737V3.71737Z" fill="#77B255"/>
</svg>
