<svg width="24" height="25" viewBox="0 0 24 25" fill="none" xmlns="http://www.w3.org/2000/svg">
<path d="M14.742 3.60721C14.2702 3.60721 13.8136 3.65253 13.3748 3.72876C12.8124 3.65734 11.4932 3.57013 10.9088 3.57013C5.09047 3.57013 0 5.75176 0 13.3885C0 19.5935 4.84052 24.6235 11.6573 24.6235C18.4742 24.6235 24 19.5935 24 13.3885C23.9993 5.66386 17.5547 3.60721 14.742 3.60721Z" fill="#DD2E44"/>
<path d="M5.09047 0C6.21459 1.12343 6.99262 1.55605 7.33871 3.37167C7.54334 4.44567 8.89476 4.40858 8.89476 4.40858C8.89476 4.40858 6.21459 5.61923 5.09047 6.74335C5.09047 6.74335 8.46214 5.61923 9.58626 5.61923C9.58626 5.61923 11.8338 6.74335 11.8338 7.86678C11.8338 7.86678 11.8338 5.61923 10.7104 5.61923C10.7104 5.61923 14.0814 5.61923 14.0814 7.86678C14.0814 7.86678 14.0814 4.49511 12.9573 4.49511C12.9573 4.49511 16.3296 3.37167 17.4537 4.49511C17.4537 4.49511 16.296 3.31399 14.0814 3.37167C14.0814 3.37167 15.2062 2.24755 17.4537 2.24755C17.4537 2.24755 13.8225 1.20996 12.6984 3.4582C12.6984 3.4582 11.7473 2.50712 13.6494 0.604979C13.6494 0.604979 10.7104 1.12343 10.7104 3.37167C10.7104 3.37167 9.64463 3.34421 8.89476 2.50712C7.42455 0.864549 5.09047 0 5.09047 0Z" fill="#77B255"/>
</svg>
