<svg width="24" height="20" viewBox="0 0 24 20" fill="none" xmlns="http://www.w3.org/2000/svg">
<path d="M24 0C22.6667 2 22.6667 -0.666666 20.6667 1.33333C18.6667 3.17891e-07 18.6667 3.33333 16.6667 1.33333C17.266 3.13267 18.946 4.38267 20.7333 4.61733C20.5487 5.81 20.868 7.248 19.3333 8.666C17.9947 9.904 17.318 8.874 14 6.66667C12 5.336 10.6667 4 7.33333 4.66667C3.41133 5.45133 0 8.666 0 9.99933C0 11.3327 2 19.312 14 19.312C15.3333 19.312 17.4953 18.8693 19.3333 17.3327C23.3033 14.014 23.2547 7.1 22.3867 4.362C23.5733 3.61067 24 1.59533 24 0Z" fill="#009EFF"/>
<path d="M20.1427 16.5407C20.242 16.4307 20.3353 16.3154 20.4287 16.2C21.6813 14.6327 22.3633 12.634 22.6653 10.6733C21.3327 14.0047 20.6613 17.3327 13.3333 17.3327C6 17.3327 3.33333 8.66602 0 9.99935C0 11.3327 2 19.312 14 19.312C15.3333 19.312 17.4953 18.8693 19.3333 17.3327C19.5453 17.1553 19.7413 16.9634 19.9327 16.7667C20.004 16.6927 20.074 16.618 20.1427 16.5407V16.5407Z" fill="#55ACEE"/>
<path d="M4.33334 10.666C4.88562 10.666 5.33334 10.2183 5.33334 9.66599C5.33334 9.1137 4.88562 8.66599 4.33334 8.66599C3.78105 8.66599 3.33334 9.1137 3.33334 9.66599C3.33334 10.2183 3.78105 10.666 4.33334 10.666Z" fill="#292F33"/>
</svg>
