<svg width="24" height="24" viewBox="0 0 24 24" fill="none" xmlns="http://www.w3.org/2000/svg">
<path d="M21.3333 0H2.66667C1.194 0 0 1.194 0 2.66667V20.6667H24V2.66667C24 1.194 22.806 0 21.3333 0Z" fill="#FFCC4D"/>
<path d="M21.4093 12.4907C22.4673 12.19 22.4673 11.726 21.41 11.4247L21.0373 11.322L20.6667 11.2133V11.2167L18.7067 10.6227L20.2553 9.33334H20.246L20.5747 9.11868L20.906 8.87934C21.7667 8.19734 21.578 7.75534 20.4867 7.88068L20.0627 7.94001L19.6413 8.00001H19.64L17.654 8.22601L18.834 6.10601L19.04 5.73401C19.5747 4.77401 19.2273 4.42534 18.268 4.95868L17.896 5.14668L17.5253 5.33334H17.524L15.7733 6.32601L16 4.36201V4.36001L16.0533 3.93868L16.1047 3.51334C16.23 2.42401 15.7767 2.23668 15.094 3.09801L14.8313 3.43068L13.3267 5.33068L12.7807 3.41001L12.7793 3.40668L12.5473 2.59001C12.2466 1.53201 11.754 1.53201 11.4527 2.59001L11.3366 2.99801L11.2206 3.40668L10.6733 5.33068L9.43265 3.76401L9.43198 3.76334L9.16865 3.43068L8.90398 3.09668C8.22198 2.23668 7.76798 2.42534 7.89398 3.51601L7.94332 3.93868L7.99198 4.36001V4.36068L8.22265 6.34668L6.10465 5.16668L5.73332 4.96001C4.77265 4.42468 4.42465 4.77268 4.95932 5.73334L5.16598 6.10401L6.34598 8.22201L4.35998 7.99134H4.35932L3.93798 7.94267L3.51465 7.89334C2.42398 7.76734 2.23598 8.22134 3.09532 8.90334L3.42932 9.16801L3.76198 9.43134L3.76265 9.43201L5.32932 10.6727L3.40665 11.2207L2.99865 11.3367L2.59065 11.4527C1.53265 11.754 1.53265 12.246 2.59065 12.5473L3.40732 12.7793L3.40998 12.7807L5.33065 13.3267L3.42998 14.832L3.09732 15.096C2.23598 15.778 2.42332 16.2327 3.51265 16.1073L3.93798 16.054L4.35932 16H4.36065L6.32598 15.7733L5.33332 17.524V17.5253L5.14665 17.896L4.94932 18.268C4.41598 19.228 4.76865 19.5747 5.72865 19.04L6.10198 18.834L8.22532 17.654L7.99998 19.64V19.6413L7.94665 20.0627L7.89532 20.486C7.76932 21.5773 8.22265 21.7647 8.90465 20.904L9.16865 20.5707L9.43198 20.2373L10.6733 18.6693L11.22 20.5927V20.5933L11.336 21.0013L11.4527 21.41C11.754 22.4673 12.1893 22.4673 12.4907 21.4093L12.6667 20.5933V20.5907L13.27 18.6693L14.54 20.2373L14.8173 20.5707L15.0887 20.904C15.77 21.764 16.2287 21.5773 16.1027 20.4873L16.0507 20.0627L16 19.6407V19.6387L15.7733 17.674L17.5227 18.6667H17.524L17.8953 18.8533L18.2673 19.05C19.2273 19.5853 19.576 19.2313 19.0407 18.272L18.854 17.898L18.6667 17.5267V17.5253L17.674 15.7733L19.6387 16H19.6407L20.0627 16.0533L20.4873 16.1047C21.5773 16.2307 21.764 15.7767 20.904 15.0947L20.5707 14.8307L20.2373 14.5673L18.6693 13.2693L20.5907 12.6667H20.5933L21.4093 12.4907Z" fill="#F4900C"/>
<path d="M12 18.42C15.5457 18.42 18.42 15.5457 18.42 12C18.42 8.45432 15.5457 5.57999 12 5.57999C8.45432 5.57999 5.57999 8.45432 5.57999 12C5.57999 15.5457 8.45432 18.42 12 18.42Z" fill="#FFE8B6"/>
<path d="M24 21.3333V18.174C22.076 15.632 18.5453 11.3333 16.6667 11.3333C14.8813 11.3333 11.604 15.2153 9.63132 17.7833V24H21.3333C22.806 24 24 22.806 24 21.3333Z" fill="#5C913B"/>
<path d="M6 15.3333C4.50067 15.3333 1.948 18.0727 0 20.4713V21.3333C0 22.806 1.194 24 2.66667 24H14.6667C14.6667 24 12.136 20.346 9.63133 17.7833C8.27933 16.4 6.93467 15.3333 6 15.3333Z" fill="#3E721D"/>
</svg>
