<svg width="24" height="24" viewBox="0 0 24 24" fill="none" xmlns="http://www.w3.org/2000/svg">
<g clip-path="url(#clip0)">
<path d="M9.64238 15.8174C9.35071 16.2321 8.89271 16.5557 8.26836 16.7881C7.64856 17.0205 6.95358 17.1367 6.1834 17.1367C5.4041 17.1367 4.71139 16.9499 4.10527 16.5762C3.49915 16.2025 3.02975 15.6738 2.69707 14.9902C2.36438 14.3066 2.19577 13.5228 2.19121 12.6387V11.3809C2.19121 10 2.53984 8.91081 3.23711 8.11328C3.93437 7.3112 4.8709 6.91016 6.04668 6.91016C7.07207 6.91016 7.89694 7.1722 8.52129 7.69629C9.14563 8.21582 9.51705 8.93359 9.63554 9.84961H8.79472C8.67168 9.12044 8.37317 8.56901 7.89922 8.19531C7.42981 7.81706 6.81458 7.62793 6.05351 7.62793C5.12383 7.62793 4.38782 7.95833 3.8455 8.61914C3.30319 9.27995 3.03203 10.2119 3.03203 11.415V12.5908C3.03203 13.3473 3.15963 14.0173 3.41484 14.6006C3.67461 15.1794 4.04375 15.6283 4.52226 15.9473C5.00534 16.2663 5.55905 16.4258 6.1834 16.4258C6.908 16.4258 7.53008 16.3118 8.04961 16.084C8.38685 15.9336 8.6375 15.7581 8.80156 15.5576V12.9873H6.12871V12.2764H9.64238V15.8174ZM13.0535 17H12.2127V7.04688H13.0535V17ZM21.243 12.3516H16.6014V17H15.7605V7.04688H21.9266V7.76465H16.6014V11.6338H21.243V12.3516Z" fill="black"/>
</g>
<defs>
<clipPath id="clip0">
<rect width="24" height="24" fill="white"/>
</clipPath>
</defs>
</svg>
