<svg width="24" height="24" viewBox="0 0 24 24" fill="none" xmlns="http://www.w3.org/2000/svg">
<path d="M18.977 4.32196L16 7.29996C14.977 6.46196 13.674 5.94996 12.232 5.94996C9.542 5.94996 7.282 7.67996 6.492 10.102L3.052 7.46696C4.708 4.07996 8.186 1.76196 12.232 1.76196C14.837 1.76196 17.162 2.73896 18.977 4.32196Z" fill="#EA4335"/>
<path d="M6.186 11.9999C6.186 12.6599 6.288 13.2929 6.493 13.8899L3.05 16.5329C2.38 15.1699 2 13.6299 2 11.9999C2 10.3699 2.38 8.82692 3.05 7.46692L6.493 10.1019C6.289 10.6969 6.186 11.3399 6.186 11.9999Z" fill="#FBBC05"/>
<path d="M18.893 19.6879C17.107 21.3549 14.725 22.238 12.233 22.238C8.185 22.238 4.707 19.921 3.053 16.533L6.493 13.8979C7.283 16.3179 9.543 18.0499 12.233 18.0499C13.553 18.0499 14.707 17.742 15.628 17.155L18.893 19.6879Z" fill="#34A853"/>
<path d="M22 12C22 15.34 20.78 17.948 18.893 19.688L15.628 17.158C16.698 16.488 17.442 15.445 17.721 14.095H12.233V10.14H21.768C21.908 10.743 22.001 11.395 22.001 12H22Z" fill="#4285F4"/>
</svg>
