<?xml version="1.0" ?><!DOCTYPE svg  PUBLIC '-//W3C//DTD SVG 1.1//EN'  'http://www.w3.org/Graphics/SVG/1.1/DTD/svg11.dtd'><svg width="32px" height="32px" viewBox="0 0 32 32" enable-background="new 0 0 32 32" version="1.1" xml:space="preserve" xmlns="http://www.w3.org/2000/svg" xmlns:xlink="http://www.w3.org/1999/xlink"><g id="Home"/><g id="Print"/><g id="Mail"/><g id="Camera"/><g id="Video"/><g id="Film"/><g id="Message"/><g id="Telephone"/><g id="User"/><g id="File"/><g id="Folder"/><g id="Map"/><g id="Download"/><g id="Upload"/><g id="Video_Recorder"/><g id="Schedule"/><g id="Cart"/><g id="Setting"/><g id="Search"/><g id="Pencils"/><g id="Group"/><g id="Record"/><g id="Headphone"/><g id="Music_Player"/><g id="Sound_On"/><g id="Sound_Off"/><g id="Lock"><path d="M26,15h-2V9c0-4.4-3.6-8-8-8S8,4.6,8,9v6H6c-0.5,0-1,0.5-1,1v5c0,5.5,4.5,10,10,10h1h1c5.5,0,10-4.5,10-10   v-5C27,15.5,26.5,15,26,15z M16,15h-6V9c0-3.3,2.7-6,6-6s6,2.7,6,6v6H16z" fill="#FE9803"/><g><path d="M16,18c-1.7,0-3,1.3-3,3c0,1.3,0.8,2.4,2,2.8V26c0,0.5,0.5,1,1,1s1-0.5,1-1v-2.2c1.2-0.4,2-1.5,2-2.8    C19,19.3,17.7,18,16,18z" fill="#3F51B5"/><path d="M16,1c-4.4,0-8,3.6-8,8v6h2V9c0-3.3,2.7-6,6-6s6,2.7,6,6v6h2V9C24,4.6,20.4,1,16,1z" fill="#3F51B5"/></g></g><g id="Lock_open"/><g id="Love"/><g id="Favorite"/><g id="Film_1_"/><g id="Music"/><g id="Puzzle"/><g id="Turn_Off"/><g id="Book"/><g id="Save"/><g id="Reload"/><g id="Trash"/><g id="Tag"/><g id="Link"/><g id="Like"/><g id="Bad"/><g id="Gallery"/><g id="Add"/><g id="Close"/><g id="Forward"/><g id="Back"/><g id="Buy"/><g id="Mac"/><g id="Laptop"/></svg>